STARTFONT 2.1
FONT -FontForge-PixelPlay-Book-R-Normal--16-160-72-72-P-62-ISO10646-1
SIZE 16 72 72
FONTBOUNDINGBOX 11 17 0 -4
COMMENT "Generated by fontforge, http://fontforge.sourceforge.net"
COMMENT "Copyright Shevchuk 2010"
STARTPROPERTIES 39
FOUNDRY "FontForge"
FAMILY_NAME "PixelPlay"
WEIGHT_NAME "Book"
SLANT "R"
SETWIDTH_NAME "Normal"
ADD_STYLE_NAME ""
PIXEL_SIZE 16
POINT_SIZE 160
RESOLUTION_X 72
RESOLUTION_Y 72
SPACING "P"
AVERAGE_WIDTH 62
CHARSET_REGISTRY "ISO10646"
CHARSET_ENCODING "1"
FONTNAME_REGISTRY ""
CHARSET_COLLECTIONS "ISO10646-1"
FONT_NAME "PixelPlay"
FACE_NAME "PixelPlay Regular"
COPYRIGHT "Copyright Shevchuk 2010"
FONT_VERSION "1.0"
FONT_ASCENT 12
FONT_DESCENT 4
UNDERLINE_POSITION 1
UNDERLINE_THICKNESS 1
X_HEIGHT 6
CAP_HEIGHT 11
RAW_ASCENT 750
RAW_DESCENT 250
NORM_SPACE 5
RELATIVE_WEIGHT 40
RELATIVE_SETWIDTH 50
SUPERSCRIPT_X 0
SUPERSCRIPT_Y 8
SUPERSCRIPT_SIZE 8
SUBSCRIPT_X 0
SUBSCRIPT_Y -2
SUBSCRIPT_SIZE 8
AVG_LOWERCASE_WIDTH 66
AVG_UPPERCASE_WIDTH 73
ENDPROPERTIES
CHARS 95
STARTCHAR space
ENCODING 32
SWIDTH 312 0
DWIDTH 5 0
BBX 1 1 0 0
BITMAP
00
ENDCHAR
STARTCHAR exclam
ENCODING 33
SWIDTH 125 0
DWIDTH 2 0
BBX 1 12 0 0
BITMAP
80
80
80
80
80
80
80
80
80
80
80
80
ENDCHAR
STARTCHAR quotedbl
ENCODING 34
SWIDTH 250 0
DWIDTH 4 0
BBX 3 2 0 10
BITMAP
A0
A0
ENDCHAR
STARTCHAR numbersign
ENCODING 35
SWIDTH 562 0
DWIDTH 9 0
BBX 8 8 0 2
BITMAP
24
24
FF
24
24
FF
24
24
ENDCHAR
STARTCHAR dollar
ENCODING 36
SWIDTH 375 0
DWIDTH 6 0
BBX 5 14 0 -1
BITMAP
20
70
A8
A8
A0
A0
70
28
28
28
A8
A8
70
20
ENDCHAR
STARTCHAR percent
ENCODING 37
SWIDTH 437 0
DWIDTH 7 0
BBX 6 12 0 0
BITMAP
48
A8
48
10
10
10
20
20
20
48
54
48
ENDCHAR
STARTCHAR ampersand
ENCODING 38
SWIDTH 500 0
DWIDTH 8 0
BBX 7 12 0 0
BITMAP
70
88
88
88
50
A4
94
8C
84
86
84
78
ENDCHAR
STARTCHAR quotesingle
ENCODING 39
SWIDTH 125 0
DWIDTH 2 0
BBX 1 2 0 10
BITMAP
80
80
ENDCHAR
STARTCHAR parenleft
ENCODING 40
SWIDTH 250 0
DWIDTH 4 0
BBX 3 12 0 0
BITMAP
20
40
80
80
80
80
80
80
80
80
40
20
ENDCHAR
STARTCHAR parenright
ENCODING 41
SWIDTH 250 0
DWIDTH 4 0
BBX 3 12 0 0
BITMAP
80
40
20
20
20
20
20
20
20
20
40
80
ENDCHAR
STARTCHAR asterisk
ENCODING 42
SWIDTH 250 0
DWIDTH 4 0
BBX 3 3 0 9
BITMAP
40
E0
40
ENDCHAR
STARTCHAR plus
ENCODING 43
SWIDTH 500 0
DWIDTH 8 0
BBX 7 7 0 3
BITMAP
10
10
10
FE
10
10
10
ENDCHAR
STARTCHAR comma
ENCODING 44
SWIDTH 187 0
DWIDTH 3 0
BBX 2 2 0 -1
BITMAP
40
80
ENDCHAR
STARTCHAR hyphen
ENCODING 45
SWIDTH 437 0
DWIDTH 7 0
BBX 6 1 0 6
BITMAP
FC
ENDCHAR
STARTCHAR period
ENCODING 46
SWIDTH 125 0
DWIDTH 2 0
BBX 1 1 0 0
BITMAP
80
ENDCHAR
STARTCHAR slash
ENCODING 47
SWIDTH 312 0
DWIDTH 5 0
BBX 4 12 0 0
BITMAP
10
10
10
20
20
20
40
40
40
80
80
80
ENDCHAR
STARTCHAR zero
ENCODING 48
SWIDTH 437 0
DWIDTH 7 0
BBX 6 12 0 0
BITMAP
78
84
84
84
8C
94
A4
C4
84
84
84
78
ENDCHAR
STARTCHAR one
ENCODING 49
SWIDTH 375 0
DWIDTH 6 0
BBX 5 12 0 0
BITMAP
20
20
E0
20
20
20
20
20
20
20
20
F8
ENDCHAR
STARTCHAR two
ENCODING 50
SWIDTH 375 0
DWIDTH 6 0
BBX 5 12 0 0
BITMAP
70
88
88
08
10
20
40
80
80
80
88
F8
ENDCHAR
STARTCHAR three
ENCODING 51
SWIDTH 375 0
DWIDTH 6 0
BBX 5 12 0 0
BITMAP
70
88
88
08
08
70
08
08
08
88
88
70
ENDCHAR
STARTCHAR four
ENCODING 52
SWIDTH 437 0
DWIDTH 7 0
BBX 6 12 0 0
BITMAP
08
18
28
28
48
48
88
FC
08
08
08
1C
ENDCHAR
STARTCHAR five
ENCODING 53
SWIDTH 375 0
DWIDTH 6 0
BBX 5 12 0 0
BITMAP
78
88
80
80
80
F0
08
08
08
88
88
70
ENDCHAR
STARTCHAR six
ENCODING 54
SWIDTH 375 0
DWIDTH 6 0
BBX 5 12 0 0
BITMAP
70
88
88
80
80
F0
88
88
88
88
88
70
ENDCHAR
STARTCHAR seven
ENCODING 55
SWIDTH 375 0
DWIDTH 6 0
BBX 5 12 0 0
BITMAP
F8
88
08
08
10
10
20
20
20
20
20
70
ENDCHAR
STARTCHAR eight
ENCODING 56
SWIDTH 375 0
DWIDTH 6 0
BBX 5 12 0 0
BITMAP
70
88
88
88
88
70
88
88
88
88
88
70
ENDCHAR
STARTCHAR nine
ENCODING 57
SWIDTH 375 0
DWIDTH 6 0
BBX 5 12 0 0
BITMAP
70
88
88
88
88
88
78
08
08
88
88
70
ENDCHAR
STARTCHAR colon
ENCODING 58
SWIDTH 125 0
DWIDTH 2 0
BBX 1 12 0 0
BITMAP
80
00
00
00
00
00
00
00
00
00
00
80
ENDCHAR
STARTCHAR semicolon
ENCODING 59
SWIDTH 187 0
DWIDTH 3 0
BBX 2 13 0 -1
BITMAP
40
00
00
00
00
00
00
00
00
00
00
40
80
ENDCHAR
STARTCHAR less
ENCODING 60
SWIDTH 375 0
DWIDTH 6 0
BBX 5 9 0 2
BITMAP
08
10
20
40
80
40
20
10
08
ENDCHAR
STARTCHAR equal
ENCODING 61
SWIDTH 500 0
DWIDTH 8 0
BBX 7 3 0 5
BITMAP
FE
00
FE
ENDCHAR
STARTCHAR greater
ENCODING 62
SWIDTH 375 0
DWIDTH 6 0
BBX 5 9 0 2
BITMAP
80
40
20
10
08
10
20
40
80
ENDCHAR
STARTCHAR question
ENCODING 63
SWIDTH 375 0
DWIDTH 6 0
BBX 5 12 0 0
BITMAP
70
88
88
08
10
20
20
20
20
20
00
20
ENDCHAR
STARTCHAR at
ENCODING 64
SWIDTH 625 0
DWIDTH 10 0
BBX 9 9 0 -1
BITMAP
3F00
4080
9E80
A280
A280
A280
9F00
4000
3F80
ENDCHAR
STARTCHAR A
ENCODING 65
SWIDTH 562 0
DWIDTH 9 0
BBX 8 12 0 0
BITMAP
18
24
24
42
42
42
42
7E
42
42
42
E7
ENDCHAR
STARTCHAR B
ENCODING 66
SWIDTH 437 0
DWIDTH 7 0
BBX 6 12 0 0
BITMAP
F8
44
44
44
44
78
44
44
44
44
44
F8
ENDCHAR
STARTCHAR C
ENCODING 67
SWIDTH 375 0
DWIDTH 6 0
BBX 5 12 0 0
BITMAP
70
88
88
80
80
80
80
80
80
88
88
70
ENDCHAR
STARTCHAR D
ENCODING 68
SWIDTH 437 0
DWIDTH 7 0
BBX 6 12 0 0
BITMAP
F8
44
44
44
44
44
44
44
44
44
44
F8
ENDCHAR
STARTCHAR E
ENCODING 69
SWIDTH 375 0
DWIDTH 6 0
BBX 5 12 0 0
BITMAP
F8
48
40
40
40
70
40
40
40
40
48
F8
ENDCHAR
STARTCHAR F
ENCODING 70
SWIDTH 375 0
DWIDTH 6 0
BBX 5 12 0 0
BITMAP
F8
48
40
40
40
70
40
40
40
40
40
E0
ENDCHAR
STARTCHAR G
ENCODING 71
SWIDTH 375 0
DWIDTH 6 0
BBX 5 12 0 0
BITMAP
70
88
88
80
80
98
88
88
88
88
88
70
ENDCHAR
STARTCHAR H
ENCODING 72
SWIDTH 500 0
DWIDTH 8 0
BBX 7 12 0 0
BITMAP
EE
44
44
44
44
7C
44
44
44
44
44
EE
ENDCHAR
STARTCHAR I
ENCODING 73
SWIDTH 250 0
DWIDTH 4 0
BBX 3 12 0 0
BITMAP
E0
40
40
40
40
40
40
40
40
40
40
E0
ENDCHAR
STARTCHAR J
ENCODING 74
SWIDTH 375 0
DWIDTH 6 0
BBX 5 12 0 0
BITMAP
38
10
10
10
10
10
10
10
10
90
90
60
ENDCHAR
STARTCHAR K
ENCODING 75
SWIDTH 500 0
DWIDTH 8 0
BBX 7 12 0 0
BITMAP
EE
44
44
48
50
60
50
48
44
44
44
EE
ENDCHAR
STARTCHAR L
ENCODING 76
SWIDTH 437 0
DWIDTH 7 0
BBX 6 12 0 0
BITMAP
E0
40
40
40
40
40
40
40
40
40
44
FC
ENDCHAR
STARTCHAR M
ENCODING 77
SWIDTH 625 0
DWIDTH 10 0
BBX 9 12 0 0
BITMAP
E380
4100
4100
6300
5500
4900
4900
4100
4100
4100
4100
E380
ENDCHAR
STARTCHAR N
ENCODING 78
SWIDTH 500 0
DWIDTH 8 0
BBX 7 12 0 0
BITMAP
CE
44
44
44
64
54
4C
44
44
44
44
E6
ENDCHAR
STARTCHAR O
ENCODING 79
SWIDTH 437 0
DWIDTH 7 0
BBX 6 12 0 0
BITMAP
78
84
84
84
84
84
84
84
84
84
84
78
ENDCHAR
STARTCHAR P
ENCODING 80
SWIDTH 437 0
DWIDTH 7 0
BBX 6 12 0 0
BITMAP
F8
44
44
44
44
44
78
40
40
40
40
E0
ENDCHAR
STARTCHAR Q
ENCODING 81
SWIDTH 437 0
DWIDTH 7 0
BBX 6 12 0 0
BITMAP
78
84
84
84
84
84
84
84
A4
94
88
74
ENDCHAR
STARTCHAR R
ENCODING 82
SWIDTH 500 0
DWIDTH 8 0
BBX 7 12 0 0
BITMAP
F8
44
44
44
44
44
78
48
44
44
44
EE
ENDCHAR
STARTCHAR S
ENCODING 83
SWIDTH 375 0
DWIDTH 6 0
BBX 5 12 0 0
BITMAP
70
88
88
80
80
70
08
08
08
88
88
70
ENDCHAR
STARTCHAR T
ENCODING 84
SWIDTH 375 0
DWIDTH 6 0
BBX 5 12 0 0
BITMAP
F8
A8
20
20
20
20
20
20
20
20
20
70
ENDCHAR
STARTCHAR U
ENCODING 85
SWIDTH 500 0
DWIDTH 8 0
BBX 7 12 0 0
BITMAP
EE
44
44
44
44
44
44
44
44
44
44
38
ENDCHAR
STARTCHAR V
ENCODING 86
SWIDTH 562 0
DWIDTH 9 0
BBX 8 12 0 0
BITMAP
E7
42
42
42
42
24
24
24
24
24
24
18
ENDCHAR
STARTCHAR W
ENCODING 87
SWIDTH 750 0
DWIDTH 12 0
BBX 11 12 0 0
BITMAP
EEE0
4440
4440
4440
4440
2480
2480
2480
2480
2480
2480
1B00
ENDCHAR
STARTCHAR X
ENCODING 88
SWIDTH 562 0
DWIDTH 9 0
BBX 8 12 0 0
BITMAP
E7
42
42
24
24
28
14
24
24
42
42
E7
ENDCHAR
STARTCHAR Y
ENCODING 89
SWIDTH 500 0
DWIDTH 8 0
BBX 7 12 0 0
BITMAP
EE
44
44
44
44
28
10
10
10
10
10
38
ENDCHAR
STARTCHAR Z
ENCODING 90
SWIDTH 375 0
DWIDTH 6 0
BBX 5 12 0 0
BITMAP
F8
88
08
08
10
20
40
80
80
80
88
F8
ENDCHAR
STARTCHAR bracketleft
ENCODING 91
SWIDTH 187 0
DWIDTH 3 0
BBX 2 12 0 0
BITMAP
C0
80
80
80
80
80
80
80
80
80
80
C0
ENDCHAR
STARTCHAR backslash
ENCODING 92
SWIDTH 312 0
DWIDTH 5 0
BBX 4 12 0 0
BITMAP
80
80
80
40
40
40
20
20
20
10
10
10
ENDCHAR
STARTCHAR bracketright
ENCODING 93
SWIDTH 187 0
DWIDTH 3 0
BBX 2 12 0 0
BITMAP
C0
40
40
40
40
40
40
40
40
40
40
C0
ENDCHAR
STARTCHAR asciicircum
ENCODING 94
SWIDTH 375 0
DWIDTH 6 0
BBX 5 3 0 9
BITMAP
20
50
88
ENDCHAR
STARTCHAR underscore
ENCODING 95
SWIDTH 375 0
DWIDTH 6 0
BBX 5 1 0 0
BITMAP
F8
ENDCHAR
STARTCHAR grave
ENCODING 96
SWIDTH 250 0
DWIDTH 4 0
BBX 3 3 0 9
BITMAP
80
40
20
ENDCHAR
STARTCHAR a
ENCODING 97
SWIDTH 437 0
DWIDTH 7 0
BBX 6 7 0 0
BITMAP
70
08
78
88
88
88
7C
ENDCHAR
STARTCHAR b
ENCODING 98
SWIDTH 437 0
DWIDTH 7 0
BBX 6 12 0 0
BITMAP
E0
40
40
40
40
78
44
44
44
44
44
F8
ENDCHAR
STARTCHAR c
ENCODING 99
SWIDTH 375 0
DWIDTH 6 0
BBX 5 7 0 0
BITMAP
70
88
80
80
80
88
70
ENDCHAR
STARTCHAR d
ENCODING 100
SWIDTH 437 0
DWIDTH 7 0
BBX 6 12 0 0
BITMAP
1C
08
08
08
08
78
88
88
88
88
88
7C
ENDCHAR
STARTCHAR e
ENCODING 101
SWIDTH 375 0
DWIDTH 6 0
BBX 5 7 0 0
BITMAP
70
88
88
F8
80
88
70
ENDCHAR
STARTCHAR f
ENCODING 102
SWIDTH 375 0
DWIDTH 6 0
BBX 5 12 0 0
BITMAP
30
48
48
40
40
F0
40
40
40
40
40
E0
ENDCHAR
STARTCHAR g
ENCODING 103
SWIDTH 375 0
DWIDTH 6 0
BBX 5 12 0 -4
BITMAP
08
70
88
88
88
88
88
70
20
90
88
70
ENDCHAR
STARTCHAR h
ENCODING 104
SWIDTH 500 0
DWIDTH 8 0
BBX 7 12 0 0
BITMAP
E0
40
40
40
40
78
44
44
44
44
44
EE
ENDCHAR
STARTCHAR i
ENCODING 105
SWIDTH 250 0
DWIDTH 4 0
BBX 3 9 0 0
BITMAP
40
00
40
40
40
40
40
40
E0
ENDCHAR
STARTCHAR j
ENCODING 106
SWIDTH 312 0
DWIDTH 5 0
BBX 3 10 0 -1
BITMAP
20
00
20
20
20
20
20
A0
A0
40
ENDCHAR
STARTCHAR k
ENCODING 107
SWIDTH 437 0
DWIDTH 7 0
BBX 6 12 0 0
BITMAP
E0
40
40
40
40
5C
48
50
60
50
48
EC
ENDCHAR
STARTCHAR l
ENCODING 108
SWIDTH 250 0
DWIDTH 4 0
BBX 3 12 0 0
BITMAP
C0
40
40
40
40
40
40
40
40
40
40
E0
ENDCHAR
STARTCHAR m
ENCODING 109
SWIDTH 625 0
DWIDTH 10 0
BBX 9 7 0 0
BITMAP
FE00
4900
4900
4900
4900
4900
EB80
ENDCHAR
STARTCHAR n
ENCODING 110
SWIDTH 500 0
DWIDTH 8 0
BBX 7 7 0 0
BITMAP
F8
44
44
44
44
44
EE
ENDCHAR
STARTCHAR o
ENCODING 111
SWIDTH 375 0
DWIDTH 6 0
BBX 5 7 0 0
BITMAP
70
88
88
88
88
88
70
ENDCHAR
STARTCHAR p
ENCODING 112
SWIDTH 375 0
DWIDTH 6 0
BBX 5 11 0 -4
BITMAP
F0
48
48
48
48
48
70
40
40
40
E0
ENDCHAR
STARTCHAR q
ENCODING 113
SWIDTH 375 0
DWIDTH 6 0
BBX 5 11 0 -4
BITMAP
78
90
90
90
90
90
70
10
10
10
38
ENDCHAR
STARTCHAR r
ENCODING 114
SWIDTH 312 0
DWIDTH 5 0
BBX 4 7 0 0
BITMAP
F0
50
40
40
40
40
E0
ENDCHAR
STARTCHAR s
ENCODING 115
SWIDTH 375 0
DWIDTH 6 0
BBX 5 7 0 0
BITMAP
70
88
80
70
08
88
70
ENDCHAR
STARTCHAR t
ENCODING 116
SWIDTH 312 0
DWIDTH 5 0
BBX 4 12 0 0
BITMAP
C0
40
40
40
40
F0
40
40
40
40
40
30
ENDCHAR
STARTCHAR u
ENCODING 117
SWIDTH 500 0
DWIDTH 8 0
BBX 7 7 0 0
BITMAP
EE
44
44
44
44
44
38
ENDCHAR
STARTCHAR v
ENCODING 118
SWIDTH 500 0
DWIDTH 8 0
BBX 7 7 0 0
BITMAP
EE
44
44
44
28
28
10
ENDCHAR
STARTCHAR w
ENCODING 119
SWIDTH 625 0
DWIDTH 10 0
BBX 9 7 0 0
BITMAP
EB80
4900
4900
4900
2A00
2A00
1400
ENDCHAR
STARTCHAR x
ENCODING 120
SWIDTH 500 0
DWIDTH 8 0
BBX 7 7 0 0
BITMAP
EE
44
28
10
28
44
EE
ENDCHAR
STARTCHAR y
ENCODING 121
SWIDTH 500 0
DWIDTH 8 0
BBX 7 9 0 -2
BITMAP
EE
44
44
44
44
34
08
50
20
ENDCHAR
STARTCHAR z
ENCODING 122
SWIDTH 375 0
DWIDTH 6 0
BBX 5 7 0 0
BITMAP
F8
88
10
20
40
88
F8
ENDCHAR
STARTCHAR braceleft
ENCODING 123
SWIDTH 250 0
DWIDTH 4 0
BBX 3 12 0 0
BITMAP
20
40
40
40
40
80
40
40
40
40
40
20
ENDCHAR
STARTCHAR bar
ENCODING 124
SWIDTH 125 0
DWIDTH 2 0
BBX 1 12 0 0
BITMAP
80
80
80
80
80
80
80
80
80
80
80
80
ENDCHAR
STARTCHAR braceright
ENCODING 125
SWIDTH 250 0
DWIDTH 4 0
BBX 3 12 0 0
BITMAP
80
40
40
40
40
20
40
40
40
40
40
80
ENDCHAR
STARTCHAR asciitilde
ENCODING 126
SWIDTH 375 0
DWIDTH 6 0
BBX 5 3 0 5
BITMAP
40
A8
10
ENDCHAR
ENDFONT
